<?xml version="1.0" standalone="no"?>
<!DOCTYPE svg PUBLIC "-//W3C//DTD SVG 20010904//EN"
 "http://www.w3.org/TR/2001/REC-SVG-20010904/DTD/svg10.dtd">
<svg version="1.0" xmlns="http://www.w3.org/2000/svg"
 width="1280.000000pt" height="723.000000pt" viewBox="0 0 1280.000000 723.000000"
 preserveAspectRatio="xMidYMid meet">

<g transform="translate(0.000000,723.000000) scale(0.100000,-0.100000)"
fill="#000000" stroke="none">
<path d="M6326 5395 c-86 -30 -145 -119 -146 -218 0 -92 33 -153 111 -202 l36
-23 6 -154 c4 -84 11 -297 17 -473 6 -176 12 -329 15 -341 5 -22 80 -63 92
-50 8 8 16 148 32 561 6 154 14 321 17 372 l6 92 50 36 c68 50 91 103 86 201
-3 61 -8 79 -33 115 -60 85 -184 122 -289 84z"/>
<path d="M4972 5257 c-16 -19 9 -117 43 -169 43 -65 123 -136 191 -169 46 -23
66 -39 75 -61 35 -84 124 -164 233 -209 48 -20 64 -32 91 -74 64 -101 180
-178 316 -210 75 -17 314 -21 324 -5 4 6 4 33 0 60 l-7 50 -138 0 c-106 0
-152 4 -198 18 -65 21 -146 72 -162 102 -11 20 -6 20 246 20 l257 0 -8 82 c-4
46 -9 86 -11 89 -2 4 -19 10 -38 13 -38 7 -119 74 -141 116 -8 15 -26 74 -40
131 -29 117 -55 159 -126 199 l-44 25 -426 3 c-346 2 -428 0 -437 -11z m859
-124 c28 -17 59 -76 59 -114 0 -20 -4 -20 -297 -17 -287 3 -300 4 -340 26 -49
26 -109 76 -124 103 -9 18 2 19 332 19 303 0 344 -2 370 -17z m124 -292 c13
-22 41 -56 61 -76 l36 -36 -228 3 c-210 3 -233 5 -276 25 -46 21 -138 97 -138
114 0 5 117 9 260 9 l260 0 25 -39z"/>
<path d="M6990 5261 c-63 -20 -122 -66 -148 -116 -6 -11 -22 -67 -36 -124 -32
-131 -80 -198 -160 -227 -26 -9 -32 -17 -38 -55 -3 -24 -7 -62 -7 -85 l-1 -41
119 -6 c65 -3 176 -3 247 0 l129 6 -30 -33 c-76 -82 -135 -102 -325 -109
l-155 -6 0 -55 0 -55 122 -3 c141 -3 223 12 319 59 79 39 163 114 195 173 20
38 32 49 71 62 64 21 157 83 190 126 15 19 37 55 48 79 18 36 32 49 79 71 117
55 224 196 225 297 l1 46 -410 2 c-225 1 -421 -2 -435 -6z m690 -123 c0 -24
-89 -96 -144 -117 -53 -19 -77 -21 -331 -21 -267 0 -275 1 -275 20 0 37 32
101 59 115 35 19 691 22 691 3z m-270 -267 c0 -16 -78 -80 -132 -108 -52 -27
-55 -27 -278 -31 l-224 -4 35 39 c19 21 45 55 57 76 l24 37 259 0 c143 0 259
-4 259 -9z"/>
<path d="M6149 4273 c-104 -53 -134 -98 -134 -196 1 -151 79 -223 344 -318
111 -39 177 -81 205 -128 25 -44 24 -126 -4 -188 -36 -83 -23 -94 42 -35 121
109 101 278 -46 391 -28 22 -110 69 -182 105 -144 72 -194 115 -194 167 0 32
38 79 65 79 12 0 15 15 15 80 0 97 -3 98 -111 43z"/>
<path d="M6567 4233 c-3 -42 -4 -81 -1 -85 3 -4 18 -8 35 -8 40 0 69 -32 69
-76 0 -50 -26 -89 -87 -131 -59 -40 -58 -43 7 -88 l40 -28 56 34 c67 41 120
99 134 148 23 83 6 177 -43 230 -29 32 -134 81 -173 81 l-31 0 -6 -77z"/>
<path d="M6201 3704 c-80 -91 -76 -221 9 -298 65 -59 83 -45 45 36 -34 72 -33
142 1 219 43 96 13 120 -55 43z"/>
<path d="M6340 3638 c0 -132 21 -483 30 -505 12 -28 55 -31 69 -5 11 20 35
501 26 524 -6 15 -91 58 -114 58 -7 0 -11 -28 -11 -72z"/>
<path d="M6030 2601 c1 -94 -1 -171 -4 -171 -3 0 -27 10 -53 22 -99 43 -220
30 -295 -32 -58 -48 -102 -148 -107 -241 -9 -203 83 -334 244 -347 74 -5 135
13 186 55 31 26 44 23 51 -11 5 -31 31 -41 85 -30 44 8 48 12 51 39 3 28 0 31
-25 30 l-28 0 -5 425 -5 425 -48 3 -48 3 1 -170z m-95 -215 c19 -8 46 -32 62
-57 24 -37 28 -53 31 -140 6 -153 -20 -223 -100 -265 -76 -39 -186 0 -228 81
-33 65 -41 203 -16 270 40 104 150 153 251 111z"/>
<path d="M6639 2730 c-141 -14 -279 -113 -342 -247 -28 -61 -32 -80 -35 -177
-8 -218 70 -362 238 -440 123 -57 283 -57 400 2 61 30 69 45 41 82 -19 23 -22
24 -53 11 -18 -7 -60 -20 -93 -28 -158 -39 -318 33 -381 172 -89 194 -25 419
142 501 74 36 196 38 294 4 l65 -22 22 29 c13 15 23 34 23 41 0 20 -97 60
-159 67 -31 3 -65 7 -76 9 -11 1 -49 0 -86 -4z"/>
<path d="M4050 2688 c-1 -4 -15 -261 -29 -533 -6 -110 -13 -224 -15 -252 l-5
-53 48 0 48 0 7 143 c3 78 9 216 12 307 3 91 8 172 11 180 2 8 25 -39 49 -105
193 -518 190 -508 206 -519 8 -5 26 -6 40 -3 20 5 31 26 72 134 106 282 191
493 198 493 4 0 8 -42 8 -92 0 -102 18 -454 26 -505 5 -32 7 -33 49 -33 l44 0
-5 133 c-3 72 -12 250 -20 394 -8 145 -14 274 -14 288 0 23 -3 25 -48 25 l-49
0 -83 -212 c-46 -117 -105 -271 -131 -343 -26 -71 -51 -131 -56 -132 -4 -1
-30 57 -57 130 -26 72 -85 228 -129 345 l-81 212 -48 0 c-26 0 -48 -1 -48 -2z"/>
<path d="M5138 2466 c-26 -7 -55 -19 -65 -26 -50 -38 -87 -80 -111 -125 -25
-45 -27 -60 -27 -160 0 -133 22 -193 92 -255 103 -90 281 -98 409 -19 39 24
40 26 14 57 l-20 24 -47 -24 c-69 -34 -190 -33 -250 1 -47 27 -88 80 -103 132
-21 71 -35 66 225 74 l235 7 0 62 c0 91 -15 132 -70 187 -72 72 -170 95 -282
65z m154 -78 c47 -14 84 -54 98 -110 19 -67 22 -66 -182 -60 -101 2 -185 6
-187 8 -3 2 6 27 20 55 45 98 143 139 251 107z"/>
<path d="M7167 2456 c-88 -30 -93 -35 -72 -77 10 -19 19 -35 20 -37 2 -2 26 8
54 22 94 48 223 44 255 -7 18 -30 27 -80 16 -97 -5 -8 -51 -21 -114 -32 -132
-22 -208 -56 -243 -109 -47 -71 -41 -164 15 -231 35 -41 79 -58 150 -58 73 0
116 14 165 52 21 17 40 28 41 27 2 -2 9 -14 15 -26 17 -33 66 -56 104 -47 53
11 65 21 60 49 -4 19 -11 25 -33 25 -15 0 -32 6 -38 13 -7 8 -12 98 -14 239
-3 226 -3 227 -28 254 -44 47 -95 64 -195 64 -68 -1 -107 -6 -158 -24z m273
-361 c0 -91 -16 -128 -68 -153 -55 -28 -88 -34 -132 -22 -49 13 -80 51 -80 99
0 46 21 76 69 101 32 16 151 45 199 49 8 1 12 -20 12 -74z"/>
<path d="M7990 2471 c-46 -14 -87 -40 -113 -71 l-26 -30 -3 42 -3 43 -62 3
c-59 3 -83 -8 -48 -22 12 -4 15 -30 15 -144 0 -76 3 -207 7 -290 l6 -152 49 0
48 0 0 193 c0 164 3 198 19 232 23 52 81 102 126 111 37 7 107 1 136 -11 12
-4 23 4 38 28 11 19 21 37 21 41 0 27 -147 46 -210 27z"/>
<path d="M8413 2459 c-63 -24 -123 -81 -160 -151 -26 -48 -28 -62 -28 -158 0
-89 4 -112 23 -152 33 -66 96 -124 162 -149 108 -41 290 -20 345 41 16 18 16
20 -4 48 l-20 29 -50 -24 c-40 -20 -66 -25 -123 -25 -40 0 -85 5 -99 10 -67
26 -129 114 -129 183 l0 29 173 0 c94 0 202 3 240 7 l67 6 0 56 c0 114 -46
195 -139 243 -45 24 -65 28 -130 27 -51 0 -93 -7 -128 -20z m224 -91 c35 -24
73 -89 73 -126 0 -22 -1 -22 -191 -22 l-191 0 7 28 c30 125 196 191 302 120z"/>
</g>
</svg>
